<?xml version="1.0" encoding="UTF-8" standalone="no"?>
<svg
   xmlns:dc="http://purl.org/dc/elements/1.1/"
   xmlns:cc="http://creativecommons.org/ns#"
   xmlns:rdf="http://www.w3.org/1999/02/22-rdf-syntax-ns#"
   xmlns:svg="http://www.w3.org/2000/svg"
   xmlns="http://www.w3.org/2000/svg"
   xmlns:sodipodi="http://sodipodi.sourceforge.net/DTD/sodipodi-0.dtd"
   xmlns:inkscape="http://www.inkscape.org/namespaces/inkscape"
   width="349.56937mm"
   height="250mm"
   viewBox="0 0 349.56936 250"
   version="1.1"
   id="svg8"
   inkscape:version="1.0.2-2 (e86c870879, 2021-01-15)"
   sodipodi:docname="plaque dessous.svg">
  <defs
     id="defs2" />
  <sodipodi:namedview
     id="base"
     pagecolor="#ffffff"
     bordercolor="#666666"
     borderopacity="1.0"
     inkscape:pageopacity="0.0"
     inkscape:pageshadow="2"
     inkscape:zoom="0.80302733"
     inkscape:cx="573.49788"
     inkscape:cy="488.269"
     inkscape:document-units="mm"
     inkscape:current-layer="layer1"
     inkscape:document-rotation="0"
     showgrid="false"
     inkscape:window-width="1920"
     inkscape:window-height="1017"
     inkscape:window-x="-8"
     inkscape:window-y="-8"
     inkscape:window-maximized="1" />
  <metadata
     id="metadata5">
    <rdf:RDF>
      <cc:Work
         rdf:about="">
        <dc:format>image/svg+xml</dc:format>
        <dc:type
           rdf:resource="http://purl.org/dc/dcmitype/StillImage" />
        <dc:title></dc:title>
      </cc:Work>
    </rdf:RDF>
  </metadata>
  <g
     inkscape:label="Calque 1"
     inkscape:groupmode="layer"
     id="layer1"
     transform="translate(109.08901,-183.83196)">
    <path
       style="fill:none;stroke-width:0.1;stroke:#ff0000;stroke-opacity:1;stroke-miterlimit:4;stroke-dasharray:none"
       d="m -104.74473,433.57689 c -1.43064,-0.23275 -2.59383,-0.97445 -3.56218,-2.27137 -0.62777,-0.8408 -0.62967,-0.95673 -0.70896,-43.28062 -0.0886,-47.28864 -0.24884,-43.66379 2.00657,-45.38447 l 1.0779,-0.82233 27.500823,-0.15265 c 19.965955,-0.11077 27.717353,-0.25001 28.291134,-0.50799 0.993124,-0.44653 2.343881,-2.03144 2.644374,-3.10278 0.125886,-0.44883 0.228885,-13.73015 0.228885,-29.51406 0,-27.34544 -0.02671,-28.75173 -0.566774,-29.83806 -0.311727,-0.62703 -1.06734,-1.45134 -1.679138,-1.83178 l -1.112366,-0.69173 -27.476813,-0.15266 -27.476815,-0.15265 -1.08016,-0.67183 c -0.5941,-0.36951 -1.38406,-1.21253 -1.75547,-1.87335 l -0.67529,-1.20153 v -42.21537 -42.21537 l 0.75893,-1.29502 c 0.50604,-0.86349 1.1994,-1.50825 2.08082,-1.93493 1.31934,-0.63869 1.39147,-0.63991 37.174339,-0.63322 34.560736,0.007 35.898462,0.0276 37.129765,0.58663 0.80366,0.36488 1.596144,1.06168 2.137086,1.87908 l 0.859761,1.29916 0.152649,91.51303 c 0.152463,91.40148 0.153407,91.51403 0.77307,92.34398 0.341231,0.45702 1.094701,1.08531 1.674375,1.3962 1.019006,0.5465 4.068661,0.56524 91.970982,0.56524 98.120193,0 92.017613,0.102 93.550153,-1.56347 0.36757,-0.39945 0.81071,-1.3445 0.98476,-2.10011 0.21449,-0.93124 0.31885,-30.47245 0.32391,-91.69589 0.007,-83.43229 0.046,-90.40333 0.51313,-91.38765 0.27811,-0.58608 1.05804,-1.43115 1.73316,-1.87793 l 1.22751,-0.81232 h 36.52769 36.52771 l 1.22747,0.81232 c 2.42414,1.60421 2.23885,-2.13111 2.23885,45.13501 0,47.26568 0.18525,43.53067 -2.23857,45.13502 l -1.22723,0.81232 -27.55354,0.15265 c -27.23281,0.15088 -27.56332,0.15998 -28.39639,0.78211 -0.46358,0.3462 -1.12614,1.00879 -1.47234,1.47242 -0.62387,0.83547 -0.63028,1.10104 -0.72189,29.90034 -0.0614,19.31325 0.013,29.41995 0.22216,30.13859 0.46814,1.60897 1.75305,2.67364 3.66411,3.03606 1.02389,0.19417 11.44221,0.30954 27.95366,0.30954 h 26.32144 l 1.03011,0.69419 c 0.56658,0.38179 1.34249,1.15773 1.72429,1.72429 l 0.69419,1.03009 v 42.40643 c 0,46.23111 0.12053,43.12222 -1.74047,44.89057 -0.57271,0.54417 -1.44803,0.94322 -2.51132,1.14487 -1.86622,0.35392 -338.79622,0.37468 -340.97005,0.021 z m 341.24844,-0.65264 c 1.67677,-0.38617 2.36524,-0.96799 3.10718,-2.62585 0.55091,-1.23107 0.56864,-2.78868 0.48994,-43.04701 -0.0809,-41.38743 -0.0874,-41.7794 -0.70306,-42.82746 -0.34176,-0.58175 -1.09737,-1.33736 -1.67915,-1.67914 -1.03939,-0.61061 -1.52135,-0.62268 -27.7713,-0.69541 -14.69246,-0.0407 -27.16827,-0.15152 -27.724,-0.24623 -1.36053,-0.23187 -3.32767,-2.05905 -3.71393,-3.44971 -0.42855,-1.54288 -0.42398,-57.48854 0.005,-59.03248 0.34248,-1.2331 1.76383,-2.83522 3.01417,-3.39749 0.5764,-0.2592 8.1086,-0.37702 27.90694,-0.43649 26.19525,-0.0787 27.1571,-0.10165 28.2842,-0.67671 0.79587,-0.40603 1.37106,-1.0173 1.80952,-1.92304 l 0.64279,-1.32778 v -41.58012 -41.5801 l -0.65099,-1.38491 c -0.45962,-0.97782 -0.99601,-1.56093 -1.8247,-1.98371 -1.14641,-0.58484 -2.01293,-0.59878 -37.2133,-0.59867 -35.19753,1.3e-4 -36.06695,0.0141 -37.21302,0.5988 -0.82846,0.42264 -1.36488,1.00585 -1.82447,1.98358 l -0.65099,1.38491 v 90.68662 c 0,75.90181 -0.0678,90.84912 -0.41644,91.68329 -0.53093,1.27071 -2.03025,2.53497 -3.4856,2.93916 -0.76965,0.21376 -30.19543,0.31156 -91.350919,0.30363 -96.109633,-0.0125 -91.532338,0.0565 -93.1804,-1.40604 -0.34909,-0.3098 -0.889083,-1.13163 -1.199987,-1.82626 -0.546045,-1.22001 -0.565377,-4.34929 -0.568281,-91.98711 -0.003,-90.22232 -0.0063,-90.73078 -0.615701,-91.92511 -0.394685,-0.77366 -1.043507,-1.42078 -1.823468,-1.81868 -1.195286,-0.60979 -1.671796,-0.61764 -37.258259,-0.61426 -39.298355,0.003 -37.002805,-0.0988 -38.429835,1.71544 -0.35008,0.44505 -0.77631,1.32834 -0.94717,1.96286 -0.20535,0.76266 -0.28331,15.15757 -0.23,42.47288 0.0777,39.78058 0.102,41.36061 0.65553,42.4307 0.31619,0.61131 1.07984,1.39527 1.69698,1.74213 1.10728,0.62232 1.48258,0.63183 28.428408,0.72031 l 27.306323,0.0897 1.073047,0.66743 c 0.590173,0.36708 1.414478,1.1227 1.831786,1.67914 l 0.758742,1.01171 0.08908,29.0033 c 0.04899,15.95181 0.0078,29.45274 -0.09139,30.00205 -0.224238,1.24106 -1.801193,3.07833 -3.112418,3.6262 -0.803693,0.3358 -5.970653,0.41247 -27.798514,0.41247 h -26.811334 l -1.34778,0.68692 c -0.78526,0.40023 -1.60864,1.13289 -1.9728,1.75546 -0.62018,1.06026 -0.62575,1.38829 -0.71894,42.28376 -0.0663,29.13284 0.005,41.67298 0.24161,42.7767 0.3468,1.61388 0.99271,2.42708 2.59998,3.27335 0.83143,0.43777 16.599166,0.48272 170.966846,0.48745 115.915754,0.003 170.486874,-0.0952 171.420264,-0.31014 z m -263.467582,-1.71681 c -1.890234,-0.69099 -2.47487,-3.13794 -1.082419,-4.53038 1.131715,-1.13173 2.915581,-1.04607 3.955612,0.18994 0.896507,1.06545 0.981007,1.77536 0.355333,2.98527 -0.621782,1.20241 -2.029746,1.79339 -3.228526,1.35517 z m 2.503443,-0.94452 c 0.611557,-0.61156 0.615471,-2.35437 0.007,-3.10584 -0.726758,-0.89751 -2.544664,-1.0207 -3.339088,-0.22627 -0.794423,0.79442 -0.671228,2.61233 0.226283,3.33908 0.751458,0.6085 2.494269,0.60458 3.105827,-0.007 z m 17.0692279,0.7465 c -1.6334411,-0.93315 -1.9656633,-2.72111 -0.7697108,-4.14242 1.6525136,-1.9639 4.7049802,-0.83421 4.7049802,1.74127 0,2.00386 -2.2391587,3.37011 -3.9352694,2.40115 z m 2.443465,-0.52083 c 1.6311426,-0.87297 1.2949914,-3.36034 -0.5357831,-3.96455 -0.8672508,-0.28622 -1.181439,-0.25904 -1.816651,0.15717 -0.9783788,0.64106 -1.1565105,1.12755 -0.9045765,2.47047 0.2734619,1.45767 1.8342696,2.09834 3.2570106,1.33691 z m 141.4272461,0.64328 c -0.85957,-0.36206 -1.63549,-1.49681 -1.63549,-2.39186 0,-2.5217 2.92458,-3.77338 4.6905,-2.00745 2.05343,2.05342 -0.36303,5.5332 -3.05501,4.39931 z m 2.57076,-0.79468 c 0.49494,-0.34667 0.67726,-0.78034 0.67386,-1.60281 -0.006,-1.38324 -0.23205,-1.76376 -1.28764,-2.1651 -1.7593,-0.66889 -3.28104,0.62077 -3.02544,2.56403 0.19238,1.46254 2.28269,2.15402 3.63922,1.20388 z m 17.11303,0.6189 c -0.90365,-0.49075 -1.606,-2.17067 -1.28506,-3.0737 0.68489,-1.92711 2.90344,-2.57867 4.5011,-1.32196 0.64818,0.50987 0.80442,0.89002 0.80442,1.95731 0,1.10425 -0.15622,1.45598 -0.93932,2.11493 -1.05405,0.88692 -1.88325,0.97395 -3.08114,0.32342 z m 2.99991,-0.92712 c 0.63437,-0.63437 0.74664,-0.96771 0.5899,-1.75138 -0.26657,-1.33287 -0.89109,-1.86143 -2.19936,-1.86143 -2.06364,0 -2.96608,2.18623 -1.50539,3.64692 0.96744,0.96745 2.12598,0.95475 3.11485,-0.0342 z m -230.853228,-8.51588 c -3.90462,-0.73982 -6.867402,-2.53172 -9.323412,-5.6388 -5.160709,-6.52878 -3.920013,-16.09988 2.752594,-21.23433 5.520667,-4.24805 13.090285,-4.23533 18.522254,0.0312 4.378776,3.43923 6.517868,8.95447 5.624434,14.50152 -1.325511,8.2297 -9.389434,13.8916 -17.57587,12.34048 z m 8.08657,-1.30403 c 6.382839,-2.55295 10.080687,-9.04963 8.995999,-15.80488 -0.646263,-4.02482 -2.59106,-7.31719 -5.616043,-9.50749 -8.000271,-5.79273 -18.981398,-2.60376 -22.52318,6.54085 -0.674565,1.74167 -0.794392,2.53388 -0.795066,5.25637 -7.03e-4,2.8735 0.09353,3.42876 0.909594,5.35922 1.613391,3.81656 4.063367,6.37023 7.644292,7.96782 3.437419,1.53355 7.838735,1.60628 11.384404,0.18811 z m 261.754018,1.40481 c -6.31955,-0.90881 -11.60718,-6.18182 -12.62286,-12.58798 -1.10542,-6.97214 2.81116,-13.83833 9.45634,-16.57798 1.76234,-0.72655 2.38683,-0.81965 5.49903,-0.81965 3.11221,0 3.7367,0.0931 5.49903,0.81965 3.87042,1.59568 7.24649,5.01942 8.66456,8.78686 3.45979,9.19185 -2.43276,19.04381 -12.20306,20.40274 -1.27049,0.17672 -2.33443,0.30434 -2.36426,0.28361 -0.0299,-0.0208 -0.89775,-0.15899 -1.92878,-0.30725 z m 7.77002,-1.40183 c 9.688,-3.85901 12.30488,-16.53599 4.9349,-23.90599 -9.60357,-9.60357 -25.94318,-2.09659 -24.93587,11.4564 0.49018,6.59524 5.48755,12.16059 11.96663,13.32668 2.20046,0.39605 5.83403,-6.1e-4 8.03434,-0.87709 z M -26.963872,380.83328 c -1.05039,-0.38398 -1.831788,-1.43025 -1.831788,-2.45271 0,-1.39162 0.473539,-2.1883 1.576308,-2.65198 2.356935,-0.99101 4.569154,1.18198 3.595748,3.53198 -0.509622,1.23034 -2.156139,2.00557 -3.340268,1.57271 z m 2.30361,-1.14436 c 1.032393,-1.03239 0.996941,-2.36985 -0.08539,-3.2212 -1.56385,-1.23013 -3.561539,-0.26771 -3.561539,1.71581 0,2.06364 2.186233,2.96607 3.646921,1.50539 z m 17.3640242,0.93371 c -1.0841252,-0.48006 -1.8157232,-1.94501 -1.5332945,-3.0703 0.7492837,-2.98538 5.3736006,-2.49889 5.3736006,0.56532 0,2.04589 -1.9720569,3.33223 -3.8403061,2.50498 z m 2.9050594,-0.95004 c 0.2457226,-0.24572 0.4467704,-0.93154 0.4467704,-1.52404 0,-1.95038 -2.011822,-2.89984 -3.5615386,-1.68083 -0.832722,0.65501 -1.1368622,2.13656 -0.6011044,2.92812 0.7260779,1.07274 2.767819,1.2248 3.7158726,0.27675 z m 140.8620584,0.93124 c -2.75526,-1.19851 -1.90042,-5.05031 1.12083,-5.05031 3.06626,0 3.87473,3.88459 1.05378,5.06327 -1.21476,0.50756 -0.97473,0.50899 -2.17461,-0.0129 z m 1.99378,-0.36669 c 0.96076,-0.25719 1.59594,-1.76879 1.2093,-2.8779 -0.39786,-1.14132 -1.77995,-1.69971 -2.97834,-1.20332 -1.16809,0.48383 -1.61278,1.7108 -1.0796,2.97883 0.47627,1.13275 1.39993,1.49018 2.84864,1.10239 z m 18.20817,0.52971 c -2.82035,-1.18472 -2.12159,-5.27438 0.90119,-5.27438 3.23283,0 3.646,4.69272 0.47266,5.36835 -0.4198,0.0894 -1.03802,0.0471 -1.37385,-0.0939 z m 2.49038,-1.11204 c 0.63437,-0.63437 0.74664,-0.9677 0.5899,-1.75138 -0.24417,-1.22083 -0.69843,-1.6751 -1.91927,-1.91926 -0.78367,-0.15674 -1.117,-0.0444 -1.75137,0.5899 -0.98887,0.98888 -1.00156,2.14741 -0.0342,3.11485 0.96744,0.96745 2.12599,0.95475 3.11485,-0.0342 z m -263.87025,-20.2596 c -1.07537,-0.65571 -1.80006,-2.35829 -1.46945,-3.45228 0.11493,-0.38045 0.56278,-1.06953 0.99511,-1.53129 0.63818,-0.68161 1.05178,-0.83957 2.19832,-0.83957 1.14351,0 1.56423,0.15976 2.21085,0.83957 1.069141,1.12401 1.29214,2.19198 0.73575,3.52361 -0.79145,1.89419 -2.88515,2.54866 -4.67058,1.45996 z m 3.54118,-0.55987 c 0.40462,-0.32763 0.72853,-1.02108 0.82986,-1.77663 0.13737,-1.02413 0.0337,-1.39334 -0.59742,-2.12702 -0.99441,-1.15609 -2.90327,-1.25226 -3.95621,-0.19934 -0.99015,0.99015 -0.97221,3.24337 0.0323,4.05675 0.91338,0.73962 2.80593,0.76332 3.69149,0.0463 z m 50.694048,0.93238 c -1.445903,-0.52856 -2.461073,-2.5568 -2.002651,-4.00118 0.699334,-2.2034 3.60585,-2.93614 5.374455,-1.3549 2.556254,2.28544 -0.12417,6.54327 -3.371804,5.35608 z m 2.774139,-0.78632 c 0.836675,-0.64238 1.260244,-1.75877 1.06406,-2.80454 -0.25733,-1.37167 -1.126665,-2.06541 -2.637897,-2.10503 -1.036235,-0.0272 -1.397058,0.12547 -2.026545,0.8573 -0.633353,0.7363 -0.737091,1.10473 -0.59963,2.12958 0.101346,0.75555 0.425249,1.449 0.829867,1.77663 0.760622,0.61592 2.651442,0.69787 3.370145,0.14606 z m 226.809903,0.50186 c -1.21674,-0.86157 -1.50644,-1.39738 -1.51679,-2.80537 -0.008,-1.06036 0.16638,-1.49708 0.88271,-2.21341 1.98838,-1.98839 5.51885,-0.59432 5.51885,2.17923 0,2.45114 -2.98379,4.18562 -4.88477,2.83955 z m 3.09889,-0.44039 c 0.33901,-0.18144 0.81482,-0.80483 1.05736,-1.38531 0.39129,-0.93651 0.38524,-1.17291 -0.0538,-2.09806 -0.82081,-1.72972 -3.31894,-2.13806 -4.57685,-0.74809 -0.29557,0.32659 -0.53355,1.117 -0.55236,1.83453 -0.0269,1.02396 0.12697,1.39836 0.81915,1.99375 0.9125,0.78489 2.28135,0.9518 3.30647,0.40318 z m 50.70724,0.55249 c -1.09913,-0.6369 -1.67278,-1.70256 -1.65416,-3.07278 0.0137,-1.02218 0.20134,-1.43594 0.95634,-2.11094 1.76859,-1.58124 4.67512,-0.8485 5.37447,1.3549 0.31008,0.97704 -0.12304,2.53893 -0.90879,3.2771 -0.87595,0.8229 -2.8109,1.10624 -3.76786,0.55172 z m 3.26999,-0.76002 c 0.40461,-0.32763 0.72852,-1.02108 0.82986,-1.77663 0.13738,-1.02413 0.0337,-1.39334 -0.59741,-2.12702 -0.6079,-0.70674 -1.01432,-0.8878 -1.99286,-0.8878 -1.48552,0 -2.41234,0.73937 -2.6738,2.13297 -0.19618,1.04577 0.22738,2.16216 1.06405,2.80454 0.71871,0.55181 2.60954,0.46986 3.37016,-0.14606 z m -341.37306,-94.68432 c -2.49315,-2.22763 -0.0962,-6.27396 3.1628,-5.33928 1.32436,0.37981 2.230604,1.68613 2.230604,3.21529 0,1.681 -1.408444,3.00863 -3.191754,3.00863 -0.90533,0 -1.46179,-0.22358 -2.20165,-0.88464 z m 4.10379,-0.26682 c 1.365597,-1.18608 0.88446,-3.79837 -0.83165,-4.51541 -2.13156,-0.89061 -4.11521,0.78214 -3.6798,3.10309 0.38073,2.02943 2.8948,2.81647 4.51145,1.41232 z m 48.753836,0.25906 c -0.714839,-0.71484 -0.891061,-1.15526 -0.88562,-2.21341 0.01027,-2.00654 1.331408,-3.30544 3.361947,-3.30544 1.37741,0 3.04252,1.7005 3.04252,3.10717 0,1.92299 -1.361653,3.28009 -3.305437,3.29438 -1.060357,0.008 -1.49708,-0.16637 -2.21341,-0.8827 z m 4.049149,-0.23975 c 1.46971,-1.29518 1.079753,-3.73786 -0.717349,-4.49349 -0.996251,-0.4189 -1.372846,-0.38879 -2.62127,0.20949 -1.162984,0.55734 -1.499675,2.97966 -0.577227,4.15279 0.79271,1.00814 2.842793,1.07683 3.915846,0.13121 z m 227.523605,0.19622 c -0.71511,-0.74642 -0.89668,-1.20867 -0.89668,-2.2828 0,-1.72759 1.03289,-2.85865 2.8308,-3.0998 3.10957,-0.41707 4.85419,3.53754 2.45226,5.55864 -1.34826,1.13448 -3.2021,1.06008 -4.38638,-0.17604 z m 4.02211,-0.14372 c 1.24134,-0.78083 1.10917,-3.72219 -0.19872,-4.42215 -0.89447,-0.47871 -2.60996,-0.34585 -3.35824,0.26008 -0.52282,0.42334 -0.69765,0.89688 -0.72075,1.95225 -0.0563,2.57336 2.00604,3.63875 4.27771,2.20982 z m 49.16385,0.44985 c -0.44037,-0.34639 -0.91719,-1.06765 -1.0596,-1.60281 -0.86011,-3.23207 2.73199,-5.49986 5.20771,-3.28779 2.15122,1.9221 0.80071,5.5204 -2.07187,5.5204 -0.82626,0 -1.5576,-0.22184 -2.07624,-0.6298 z m 3.92396,-0.63707 c 0.88851,-0.84712 0.80491,-3.20918 -0.14066,-3.97485 -1.38116,-1.1184 -3.73592,-0.55084 -4.25246,1.02494 -0.94062,2.86972 2.23833,5.00433 4.39312,2.94991 z M -71.842667,225.8455 c -9.56119,-1.8053 -14.995834,-12.06503 -11.091492,-20.93894 2.790054,-6.34132 9.49864,-9.97618 16.382601,-8.87647 6.358443,1.01577 11.635353,6.40308 12.482631,12.74379 0.572385,4.28353 -0.404047,8.05251 -2.939965,11.34813 -3.524612,4.58049 -9.22947,6.78167 -14.833775,5.72349 z m 8.377641,-1.31242 c 9.633489,-4.02318 12.152008,-16.51344 4.810152,-23.8553 -3.35633,-3.35633 -8.02831,-4.8993 -12.577197,-4.15378 -5.455653,0.89416 -9.378575,4.02167 -11.45348,9.13122 -0.764646,1.88298 -0.867232,2.51825 -0.86276,5.34271 0.0045,2.8165 0.110912,3.46506 0.876887,5.34271 1.919171,4.70451 6.053959,8.15505 10.811016,9.02198 2.353224,0.42884 6.320952,0.0368 8.395382,-0.82954 z m 261.213466,1.38217 c -4.9944,-0.82797 -9.81711,-4.93065 -11.55189,-9.82718 -1.1052,-3.11952 -1.09123,-7.40694 0.0337,-10.34651 1.53655,-4.01508 4.95482,-7.44166 8.97583,-8.99767 1.76447,-0.68279 2.54632,-0.80155 5.27699,-0.80155 2.73068,0 3.51251,0.11876 5.27698,0.80155 6.66707,2.57993 10.77427,9.48892 9.7118,16.3368 -1.0287,6.63005 -6.09384,11.8212 -12.5464,12.85851 -2.26116,0.36351 -2.85646,0.36075 -5.17702,-0.024 z m 8.2069,-1.39445 c 3.80373,-1.52139 6.47972,-4.17095 8.14888,-8.06839 0.7467,-1.74348 0.83194,-2.30496 0.82797,-5.45448 -0.003,-3.14224 -0.0927,-3.71931 -0.84543,-5.49536 -1.63334,-3.8538 -4.19238,-6.41826 -8.10831,-8.12549 -1.80105,-0.78521 -2.30889,-0.86503 -5.49537,-0.86383 -3.11876,0.001 -3.72564,0.0923 -5.43311,0.81607 -3.84982,1.63183 -6.63412,4.41607 -8.20665,8.20648 -0.69977,1.6867 -0.81306,2.40645 -0.8357,5.30948 -0.0234,3.00228 0.0637,3.57931 0.82181,5.4433 1.95095,4.79693 6.01443,8.18368 10.88824,9.0749 2.33271,0.42656 6.00307,0.0511 8.23767,-0.84268 z"
       id="path901" />
  </g>
</svg>
