<?xml version="1.0" encoding="UTF-8" standalone="no"?>
<svg
   xmlns:dc="http://purl.org/dc/elements/1.1/"
   xmlns:cc="http://creativecommons.org/ns#"
   xmlns:rdf="http://www.w3.org/1999/02/22-rdf-syntax-ns#"
   xmlns:svg="http://www.w3.org/2000/svg"
   xmlns="http://www.w3.org/2000/svg"
   xmlns:sodipodi="http://sodipodi.sourceforge.net/DTD/sodipodi-0.dtd"
   xmlns:inkscape="http://www.inkscape.org/namespaces/inkscape"
   width="350.3999mm"
   height="250mm"
   viewBox="0 0 350.3999 250"
   version="1.1"
   id="svg8"
   inkscape:version="1.0.2-2 (e86c870879, 2021-01-15)"
   sodipodi:docname="plaque dessus.svg">
  <defs
     id="defs2" />
  <sodipodi:namedview
     id="base"
     pagecolor="#ffffff"
     bordercolor="#666666"
     borderopacity="1.0"
     inkscape:pageopacity="0.0"
     inkscape:pageshadow="2"
     inkscape:zoom="0.56782607"
     inkscape:cx="369.04007"
     inkscape:cy="548.78342"
     inkscape:document-units="mm"
     inkscape:current-layer="layer1"
     inkscape:document-rotation="0"
     showgrid="false"
     inkscape:window-width="1920"
     inkscape:window-height="1017"
     inkscape:window-x="-8"
     inkscape:window-y="-8"
     inkscape:window-maximized="1" />
  <metadata
     id="metadata5">
    <rdf:RDF>
      <cc:Work
         rdf:about="">
        <dc:format>image/svg+xml</dc:format>
        <dc:type
           rdf:resource="http://purl.org/dc/dcmitype/StillImage" />
        <dc:title />
      </cc:Work>
    </rdf:RDF>
  </metadata>
  <g
     inkscape:label="Calque 1"
     inkscape:groupmode="layer"
     id="layer1"
     transform="translate(58.262079,-78.89738)">
    <path
       style="fill:none;stroke-width:0.1;stroke:#ff0000;stroke-opacity:1;stroke-miterlimit:4;stroke-dasharray:none"
       d="m -55.422251,328.36321 c -0.580265,-0.2859 -1.430391,-1.08698 -1.889169,-1.7802 l -0.834143,-1.26038 -0.09475,-40.95507 c -0.05211,-22.5253 -0.0074,-41.6918 0.09939,-42.59222 0.229848,-1.93832 1.155109,-3.43667 2.672752,-4.3282 1.082158,-0.63571 1.571328,-0.64944 28.665409,-0.80419 25.88503197,-0.14783 27.61727816,-0.19204 28.4312832,-0.72554 0.4767477,-0.31247 1.1428966,-1.02091 1.4803277,-1.5743 0.5965644,-0.9784 0.613514,-1.81963 0.613514,-30.44574 0,-28.62613 -0.016934,-29.46736 -0.613514,-30.44575 -0.3374311,-0.5534 -1.00358,-1.26184 -1.4803277,-1.5743 -0.81400504,-0.5335 -2.54625123,-0.57771 -28.4312832,-0.72555 -27.094081,-0.15474 -27.583251,-0.16847 -28.665409,-0.80417 -1.517643,-0.89153 -2.442904,-2.3899 -2.672752,-4.32822 -0.106769,-0.90042 -0.151496,-20.06692 -0.09939,-42.59221 l 0.09475,-40.955071 0.837772,-1.265864 c 1.653595,-2.498567 -1.399549,-2.326661 39.677684,-2.23403 35.715926,0.08054 36.645601,0.0978 37.43062,0.694456 0.442758,0.336526 1.080352,0.97412 1.416876,1.416877 0.60182,0.791799 0.61445,2.309008 0.769295,92.429692 0.144877,84.31811 0.198801,91.70007 0.676203,92.57002 0.725674,1.32235 1.485132,1.92664 2.944704,2.34306 0.933814,0.26642 24.76003,0.3355 92.152619,0.2672 l 90.89317,-0.0921 0.86949,-0.64919 c 0.47822,-0.35704 1.16162,-1.04044 1.51868,-1.51865 l 0.64917,-0.86948 0.15743,-91.73598 0.15743,-91.735981 0.65868,-0.888936 c 0.36227,-0.488916 1.12708,-1.207734 1.69958,-1.597375 l 1.04092,-0.708438 h 36.72047 36.7205 l 1.21288,0.999749 c 0.66707,0.549863 1.40781,1.466282 1.64603,2.036487 0.36029,0.862286 0.43318,8.077061 0.43318,42.876434 0,30.39589 -0.0978,42.13244 -0.35771,42.90999 -0.52365,1.5668 -1.72162,2.69587 -3.27563,3.08717 -0.93711,0.23597 -9.72855,0.34457 -27.89282,0.34457 -25.83872,0 -26.55785,0.0162 -27.81905,0.62674 -0.9492,0.4595 -1.47982,1.00785 -1.98857,2.05501 l -0.69392,1.4283 0.005,28.88011 0.005,28.88012 0.70326,1.22666 c 0.38679,0.67468 1.19695,1.48938 1.80037,1.81047 1.04332,0.55517 2.40137,0.58386 27.7078,0.58554 17.59759,10e-4 27.01355,0.11364 27.80004,0.33203 1.63063,0.45283 3.19367,1.90867 3.63665,3.38724 0.2743,0.91555 0.36923,11.91111 0.36923,42.76956 v 41.53719 l -0.70844,1.40233 c -0.38963,0.77129 -1.18986,1.72227 -1.7783,2.11332 l -1.06987,0.71098 -171.47421,-0.007 c -158.744232,-0.007 -171.552551,-0.0458 -172.529254,-0.52698 z m 344.692731,-0.39329 c 0.90599,-0.46221 1.36666,-0.99824 1.87661,-2.18368 l 0.67588,-1.57111 -0.017,-41.34591 c -0.0195,-46.91173 0.17311,-43.46283 -2.51016,-44.96531 l -1.4086,-0.78866 -27.44877,-0.15744 c -27.23517,-0.1562 -27.4557,-0.16255 -28.33755,-0.8161 -0.48881,-0.36226 -1.20754,-1.12708 -1.59718,-1.69958 l -0.70845,-1.04092 0.005,-29.4717 0.005,-29.4717 0.70326,-1.22667 c 0.38679,-0.67466 1.19695,-1.48937 1.80036,-1.81045 1.04335,-0.55518 2.39789,-0.58378 27.6471,-0.58378 18.14321,0 26.98224,-0.10888 27.91508,-0.34374 1.57062,-0.39549 3.06219,-1.80755 3.59447,-3.40287 0.25894,-0.7761 0.35708,-12.3931 0.35708,-42.26378 0,-46.20629 0.16927,-42.914312 -2.2983,-44.701799 l -1.25967,-0.912492 h -36.2727 -36.27268 l -1.04092,0.708438 c -0.5725,0.389641 -1.33731,1.108459 -1.69958,1.597375 l -0.65867,0.888936 -0.15743,91.754922 -0.15744,91.75491 -1.49972,1.49972 -1.49973,1.49972 -91.22697,0.0921 c -61.127563,0.0618 -91.593528,-0.0134 -92.337933,-0.22788 -1.474281,-0.42465 -3.120856,-2.17145 -3.471511,-3.68282 C 21.805188,264.39223 21.682823,225.77426 21.678479,173.455 21.673243,110.34857 21.569793,82.763777 21.336066,82.145183 20.870383,80.912681 19.33753,79.588818 18.123976,79.37103 17.5638,79.270496 0.92801723,79.229063 -18.844427,79.278946 l -35.9499,0.0907 -0.888893,0.662636 c -0.48889,0.364449 -1.172267,1.143731 -1.518615,1.731737 -0.621209,1.05465 -0.629722,1.635379 -0.629722,42.955841 0,40.74491 0.01661,41.92357 0.609366,43.2381 0.42978,0.95311 0.98654,1.55327 1.889169,2.03644 1.279518,0.68492 1.285936,0.6851 28.844265,0.8425 25.88503377,0.14784 27.6172784,0.19204 28.4312835,0.72554 0.4767476,0.31246 1.1428965,1.02091 1.4803277,1.57431 0.5967001,0.97862 0.6135485,1.82435 0.6146909,30.85764 l 0.00131,29.85145 -1.3956298,1.47727 -1.3956299,1.47726 -27.6503414,0.15743 c -26.784537,0.1525 -27.68828,0.17698 -28.861932,0.78148 -0.749749,0.38616 -1.469873,1.10628 -1.889168,1.88917 l -0.677662,1.26513 -0.09476,40.61713 c -0.05212,22.33941 -0.0074,41.35383 0.09939,42.25426 0.23498,1.98138 1.204393,3.52567 2.677978,4.26602 1.039166,0.5221 9.927687,0.55054 172.15678,0.55101 168.84436,6.3e-4 171.0766,-0.007 172.2618,-0.61209 z m -265.079765,-1.4924 c -1.838571,-0.6976 -2.436821,-2.78137 -1.236594,-4.30721 1.398027,-1.77731 4.70007,-0.61289 4.70007,1.6574 0,1.65585 -2.016675,3.19874 -3.463476,2.64981 z m 2.338498,-0.90822 c 1.439572,-1.43956 0.582972,-3.67602 -1.475513,-3.85234 -2.066754,-0.17704 -3.256023,2.26847 -1.80757,3.71693 0.763586,0.76358 2.579991,0.8385 3.283083,0.13541 z m 161.704327,0.90167 c -2.88934,-1.05622 -2.33286,-5.13028 0.70075,-5.13028 0.87801,0 1.31558,0.21765 1.94758,0.96874 1.27265,1.51246 0.98417,3.01011 -0.75286,3.90835 -0.97452,0.50394 -1.14662,0.52694 -1.89547,0.25319 z m 2.51384,-1.25961 c 1.17164,-1.48949 0.1399,-3.55581 -1.77549,-3.55581 -1.96896,0 -2.97959,2.05632 -1.82251,3.70828 0.74233,1.05983 2.71,0.97645 3.598,-0.15247 z m -147.610093,0.43838 c -1.56365,-1.66443 -0.410804,-4.30905 1.87841,-4.30905 1.45329,0 2.474767,1.0579 2.474767,2.56301 0,2.23561 -2.827733,3.3698 -4.353177,1.74604 z m 3.462515,-0.10723 c 0.779034,-0.705 0.750091,-2.45323 -0.05392,-3.25723 -0.753309,-0.75331 -2.114238,-0.81502 -3.078555,-0.13958 -0.857897,0.60089 -0.958395,2.48055 -0.17869,3.34211 0.658793,0.72796 2.533013,0.75893 3.311167,0.0547 z m 160.561258,0.28496 c -1.79627,-1.49137 -0.57692,-4.48678 1.82644,-4.48678 2.30439,0 3.47235,2.79811 1.81705,4.35317 -0.89771,0.84336 -2.70864,0.90977 -3.64349,0.13361 z m 3.56722,-0.46364 c 1.15708,-1.65196 0.14645,-3.70828 -1.82251,-3.70828 -1.29318,0 -2.20035,0.90869 -2.20035,2.20403 0,1.35501 0.90136,2.20403 2.33993,2.20403 0.87566,0 1.32311,-0.18606 1.68293,-0.69978 z M 23.074389,275.22779 c -1.137906,-1.13789 -1.056036,-2.71122 0.1959,-3.76465 0.532806,-0.44833 1.301219,-0.81515 1.707579,-0.81515 1.201928,0 2.676323,1.45737 2.676323,2.64541 0,2.29638 -2.965331,3.54886 -4.579802,1.93439 z m 3.492097,-0.31486 c 1.521247,-1.52125 0.575164,-3.76116 -1.588618,-3.76116 -2.101785,0 -3.033709,2.02015 -1.708886,3.70439 0.853074,1.0845 2.245794,1.10848 3.297504,0.0568 z m 16.570801,0.35897 c -1.495328,-1.59171 -0.364767,-4.62391 1.72403,-4.62391 2.203161,0 3.494065,3.17089 1.900416,4.66804 -0.998618,0.93816 -2.721345,0.91718 -3.624446,-0.0442 z m 3.408592,-0.21584 c 0.937551,-0.93755 0.839635,-2.62294 -0.199893,-3.44064 -0.456288,-0.35891 -1.074772,-0.65257 -1.374414,-0.65257 -0.299641,0 -0.918127,0.29366 -1.374414,0.65257 -1.663596,1.3086 -0.731043,4.07035 1.374414,4.07035 0.52477,0 1.224462,-0.27987 1.574307,-0.62971 z m 140.571341,0.17173 c -1.13792,-1.13789 -1.05604,-2.71122 0.19589,-3.76465 1.26949,-1.06821 2.32209,-1.03623 3.46354,0.1052 1.14145,1.14145 1.17343,2.19404 0.1052,3.46354 -1.05344,1.25193 -2.62676,1.3338 -3.76465,0.19589 z m 3.04126,0.12398 c 1.55307,-0.83118 1.35332,-3.36826 -0.31975,-4.06126 -2.30945,-0.95661 -4.21175,1.83902 -2.49489,3.66654 0.7348,0.78215 1.80918,0.93282 2.81464,0.39472 z m 16.83731,-0.31987 c -1.06821,-1.2695 -1.03623,-2.32209 0.1052,-3.46354 1.14145,-1.14145 2.19405,-1.17343 3.46353,-0.1052 1.94833,1.63941 0.9129,4.5375 -1.62117,4.5375 -0.87801,0 -1.31559,-0.21765 -1.94759,-0.96874 z m 3.59292,0.0242 c 1.1391,-1.13912 0.66545,-3.22606 -0.86419,-3.80764 -1.79968,-0.68423 -3.62916,1.13987 -2.94583,2.93717 0.58504,1.53877 2.66623,2.01425 3.81002,0.87047 z M -54.308316,254.02182 c -1.920823,-2.0049 -0.470807,-5.24239 2.34798,-5.24239 1.044344,0 1.445537,0.187 2.190824,1.02111 1.186098,1.32748 1.220723,2.80043 0.09723,4.13563 -0.698401,0.83001 -1.028166,0.96874 -2.302553,0.96874 -1.218653,0 -1.640284,-0.15955 -2.333472,-0.88309 z m 4.183713,-0.0534 c 1.446538,-1.44655 1.113483,-3.61257 -0.693341,-4.50915 -1.029834,-0.51102 -1.245164,-0.52115 -2.240254,-0.10532 -2.930885,1.2246 -2.135549,5.23622 1.038123,5.23622 0.848473,0 1.481336,-0.20758 1.895472,-0.62171 z m 49.65759847,0.0534 c -2.59492097,-2.70852 1.08365342,-6.8375 4.09115303,-4.59207 2.4483414,1.82794 1.2007903,5.47516 -1.8728083,5.47516 -1.09251316,0 -1.54477006,-0.18002 -2.21834473,-0.88309 z m 4.10064953,-0.1402 c 0.8903965,-0.97281 1.1129376,-1.88106 0.7164358,-2.92393 -0.4706928,-1.23802 -1.2054218,-1.69867 -2.7278241,-1.71026 -1.6005395,-0.0121 -2.62046016,1.04767 -2.62046016,2.72308 0,2.30559 3.10005916,3.58468 4.63184846,1.91111 z m 226.377955,0.1402 c -1.18971,-1.24178 -1.18101,-3.09355 0.0198,-4.21783 1.19283,-1.11682 2.04185,-1.3054 3.37298,-0.74923 1.27834,0.53413 2.22967,2.27186 1.87946,3.43309 -0.72135,2.39182 -3.6375,3.24029 -5.27225,1.53397 z m 4.09271,-0.11639 c 0.98217,-0.9227 1.00451,-2.917 0.0442,-3.9393 -0.92272,-0.98217 -2.91702,-1.00451 -3.93932,-0.0442 -1.0233,0.96136 -1.00193,2.84916 0.0442,3.8952 1.01278,1.01277 2.82281,1.05424 3.85108,0.0882 z m 50.08326,0.6594 c -0.9012,-0.52491 -1.5732,-2.13862 -1.3612,-3.26872 0.68243,-3.63765 6.16284,-3.12136 6.16284,0.58058 0,1.79444 -1.21794,3.03177 -2.97138,3.01864 -0.70359,-0.005 -1.5272,-0.154 -1.83026,-0.3305 z m 3.71396,-0.74762 c 0.97412,-0.97414 1.02619,-2.59847 0.12024,-3.7502 -0.51032,-0.64879 -0.92661,-0.82961 -1.90985,-0.82961 -1.67498,0 -2.35466,0.41202 -2.77355,1.68127 -0.93253,2.82556 2.47295,4.98874 4.56316,2.89854 z M -54.041408,159.15442 c -1.493717,-1.3115 -1.568669,-3.02361 -0.192605,-4.39966 2.003743,-2.00374 5.376864,-0.64153 5.376864,2.17141 0,1.03791 -0.189617,1.41754 -1.112971,2.22825 -0.703309,0.61751 -1.452588,0.9772 -2.035643,0.9772 -0.583056,0 -1.332335,-0.35969 -2.035645,-0.9772 z m 4.160959,-0.45689 c 1.653056,-1.87849 0.244229,-4.56909 -2.376275,-4.53827 -2.064222,0.0243 -3.297501,2.60783 -2.07681,4.3506 1.055567,1.50704 3.21207,1.59792 4.453085,0.18767 z m 48.6933287,0.36356 c -1.459075,-1.45907 -1.4695282,-2.82728 -0.032238,-4.22035 2.13399238,-2.06835 5.2589394,-0.8513 5.2589394,2.04816 0,1.08057 -0.179474,1.44589 -1.1129721,2.26552 -1.5170817,1.33201 -2.71557398,1.30482 -4.1137283,-0.0933 z m 4.2034004,-0.36356 c 1.5852929,-1.80149 0.3908633,-4.54828 -1.9777926,-4.54828 -1.35372186,0 -2.9840089,1.40943 -2.9766355,2.57339 0.017315,2.7317 3.179296,3.99209 4.9544281,1.97489 z m 228.4656899,1.13799 c -2.00814,-0.85834 -2.27923,-4.19659 -0.45455,-5.59754 0.27476,-0.21096 1.13717,-0.38356 1.91645,-0.38356 0.77928,0 1.64168,0.1726 1.91646,0.38356 1.38866,1.06618 1.65225,3.48097 0.52322,4.79354 -0.77988,0.90667 -2.72406,1.30732 -3.90158,0.804 z m 2.51979,-0.45232 c 0.66148,-0.27639 1.19211,-0.80645 1.46371,-1.46216 0.37895,-0.91488 0.35885,-1.15339 -0.18191,-2.15774 -0.71527,-1.32851 -1.93976,-1.87566 -3.20556,-1.43239 -0.48871,0.17114 -1.13068,0.79507 -1.47383,1.43239 -0.54058,1.00402 -0.56077,1.24305 -0.18226,2.15688 0.25628,0.61871 0.81149,1.19569 1.3951,1.44982 1.20291,0.52376 0.96619,0.52234 2.18475,0.0132 z m 50.21132,0.28389 c -0.99845,-0.5625 -1.65428,-2.30553 -1.36427,-3.62592 0.47261,-2.15186 3.76902,-3.03249 5.36757,-1.43394 1.04916,1.04916 1.08084,3.24204 0.0639,4.42429 -0.88016,1.02328 -2.83636,1.32896 -4.06718,0.63557 z m 2.48451,-0.18184 c 1.18469,-0.41298 2.15076,-2.08098 1.86489,-3.21993 -0.42436,-1.69084 -2.04861,-2.47134 -3.71042,-1.78299 -2.03766,0.84401 -2.12339,3.53049 -0.15108,4.73317 0.54022,0.3294 0.99645,0.59944 1.01393,0.60008 0.0173,6.3e-4 0.45966,-0.14799 0.98268,-0.33033 z"
       id="path885" />
  </g>
</svg>
